<svg width="391" height="124" viewBox="0 0 391 124" xmlns="http://www.w3.org/2000/svg">
  <title>
    Algolia_logo_bg-white
  </title>
  <g fill="none" fill-rule="evenodd">
    <path d="M235.603 47.018l-5.695 20.18 18.342-10.05c-2.664-4.886-7.21-8.58-12.647-10.13zM203.456 33.4c-2.454-2.464-6.434-2.462-8.887 0l-1.11 1.116c-2.46 2.462-2.46 6.46 0 8.924l1.18 1.187c2.52-4.058 5.72-7.64 9.45-10.588l-.64-.64zm38.384-6.176c.01-.136.04-.265.04-.404v-3.155c0-3.484-2.813-6.31-6.282-6.31H224.6c-3.467 0-6.28 2.825-6.28 6.31v3.1c3.5-.985 7.185-1.523 10.995-1.523 4.368 0 8.576.7 12.526 1.982" fill="#46AEDA"/>
    <path d="M229.76 41.553c13.785 0 25 11.215 25 25 0 13.784-11.215 25-25 25-13.784 0-25-11.216-25-25 0-13.785 11.216-25 25-25m-35 25c0 19.328 15.668 35 35 35 19.333 0 35-15.672 35-35s-15.667-35-35-35c-19.332 0-35 15.672-35 35z" fill="#46AEDA"/>
    <path d="M69.583 99.656c-1.443-3.835-2.8-7.604-4.07-11.31-1.273-3.706-2.59-7.476-3.945-11.31H21.62l-8.015 22.62H.755c3.392-9.37 6.572-18.038 9.542-26.005 2.97-7.96 5.87-15.52 8.716-22.68 2.84-7.16 5.66-13.99 8.46-20.51 2.798-6.51 5.724-12.97 8.778-19.36h11.33c3.06 6.39 5.98 12.85 8.78 19.36 2.8 6.52 5.62 13.36 8.46 20.51 2.84 7.16 5.75 14.72 8.72 22.69 2.97 7.97 6.15 16.64 9.54 26.01H69.59zm-11.577-32.84c-2.716-7.415-5.408-14.59-8.078-21.535-2.673-6.94-5.452-13.6-8.334-19.99-2.97 6.39-5.79 13.06-8.46 20-2.67 6.95-5.324 14.12-7.952 21.54h32.824zm56.104 34.117c-7.295-.17-12.467-1.745-15.52-4.728-3.055-2.98-4.58-7.624-4.58-13.93V2.535L105.84.49v79.87c0 1.96.17 3.578.51 4.856.34 1.277.89 2.3 1.653 3.067.763.765 1.782 1.34 3.055 1.725 1.273.383 2.84.703 4.705.96l-1.654 9.965m56.36-7.923c-1.02.685-2.99 1.555-5.92 2.62-2.93 1.065-6.34 1.598-10.24 1.598-3.99 0-7.74-.64-11.26-1.916-3.52-1.28-6.6-3.26-9.23-5.943-2.63-2.69-4.71-6.03-6.24-10.04-1.53-4.01-2.29-8.78-2.29-14.31 0-4.86.72-9.31 2.16-13.36 1.44-4.05 3.54-7.54 6.3-10.48 2.75-2.94 6.12-5.24 10.11-6.9 3.98-1.66 8.48-2.49 13.48-2.49 5.51 0 10.32.4 14.44 1.21 4.11.81 7.57 1.55 10.37 2.23v59.3c0 10.22-2.63 17.63-7.89 22.23-5.26 4.6-13.24 6.9-23.92 6.9-4.16 0-8.08-.34-11.77-1.02-3.69-.69-6.89-1.49-9.61-2.43l2.162-10.35c2.375.93 5.28 1.77 8.716 2.49 3.43.72 7.015 1.09 10.75 1.09 7.04 0 12.104-1.41 15.2-4.22 3.097-2.81 4.644-7.29 4.644-13.42V93zm-4.9-50.284c-2-.297-4.69-.448-8.08-.448-6.36 0-11.26 2.09-14.7 6.263-3.44 4.18-5.16 9.71-5.16 16.62 0 3.84.48 7.12 1.46 9.84.97 2.73 2.29 4.99 3.94 6.78s3.56 3.11 5.72 3.96c2.16.86 4.39 1.28 6.68 1.28 3.14 0 6.02-.44 8.65-1.34 2.63-.89 4.71-1.94 6.23-3.13V43.69c-1.19-.34-2.78-.66-4.77-.958zm131.46 58.208c-7.3-.172-12.47-1.745-15.52-4.728-3.06-2.98-4.58-7.625-4.58-13.93V2.536L288.76.493V80.36c0 1.96.17 3.578.51 4.856.34 1.278.89 2.3 1.655 3.067.76.767 1.777 1.343 3.05 1.726 1.273.38 2.84.7 4.708.95l-1.655 9.96m20.737-79.74c-2.118 0-3.923-.71-5.404-2.11-1.48-1.41-2.22-3.3-2.22-5.69 0-2.39.74-4.29 2.23-5.69 1.48-1.41 3.29-2.11 5.41-2.11s3.93.7 5.41 2.11c1.48 1.4 2.23 3.3 2.23 5.68s-.74 4.28-2.22 5.68c-1.48 1.4-3.29 2.11-5.41 2.11zm-5.85 12.01h11.832v66.45h-11.83V33.2zm53.56-1.66c4.75 0 8.756.62 12.023 1.85 3.265 1.23 5.895 2.98 7.888 5.23 1.99 2.26 3.412 4.94 4.26 8.05.847 3.1 1.273 6.53 1.273 10.28V98.5c-1.02.17-2.44.405-4.26.703-1.83.298-3.88.574-6.17.83-2.29.255-4.77.49-7.44.702-2.68.21-5.33.32-7.96.32-3.74 0-7.17-.383-10.31-1.15-3.14-.767-5.85-1.98-8.14-3.64-2.29-1.662-4.07-3.855-5.35-6.583-1.27-2.727-1.91-6.007-1.91-9.84 0-3.663.74-6.816 2.22-9.457 1.48-2.64 3.49-4.77 6.04-6.39 2.54-1.617 5.51-2.81 8.9-3.578 3.39-.767 6.95-1.15 10.68-1.15 1.184 0 2.416.062 3.69.19 1.27.13 2.48.3 3.623.513 1.145.212 2.142.403 2.992.573.845.17 1.44.3 1.78.382v-3.32c0-1.96-.21-3.9-.64-5.817-.426-1.917-1.19-3.62-2.29-5.11-1.1-1.49-2.61-2.684-4.52-3.58-1.905-.893-4.39-1.34-7.44-1.34-3.902 0-7.313.28-10.24.83-2.927.555-5.11 1.13-6.554 1.726l-1.4-9.84c1.53-.68 4.076-1.34 7.637-1.98 3.56-.64 7.42-.96 11.57-.96zm1.017 59.55c2.8 0 5.28-.07 7.443-.2 2.163-.13 3.965-.36 5.407-.7v-19.8c-.85-.43-2.228-.79-4.134-1.09-1.91-.3-4.22-.45-6.933-.45-1.78 0-3.67.13-5.66.38-1.994.25-3.82.79-5.47 1.59-1.656.81-3.035 1.912-4.136 3.32-1.1 1.403-1.66 3.26-1.66 5.56 0 4.26 1.35 7.22 4.07 8.88 2.71 1.662 6.4 2.492 11.07 2.492z" fill="#0C1724"/>
  </g>
</svg>
